<svg xmlns="http://www.w3.org/2000/svg" viewBox="0 0 330 32" width="330" height="32" role="img" aria-label="What I optimize for"><g transform="translate(6 2) scale(0.0546875)"><g transform="translate(0.000000,512.000000) scale(0.100000,-0.100000)"
fill="#1f2328" stroke="none">
<path d="M2083 4723 c-28 -71 -61 -156 -74 -189 l-23 -62 -81 -22 c-112 -31
-262 -92 -383 -156 -57 -29 -108 -54 -115 -53 -7 0 -91 36 -187 79 l-175 78
-217 -216 c-120 -119 -218 -222 -218 -228 0 -6 36 -90 80 -188 l79 -177 -30
-48 c-66 -108 -162 -344 -198 -486 l-11 -40 -187 -72 -188 -71 0 -312 0 -312
188 -71 187 -72 10 -40 c38 -144 133 -378 199 -486 l30 -48 -79 -177 c-44 -98
-80 -182 -80 -188 0 -6 98 -109 218 -228 l217 -216 183 81 183 80 117 -60
c136 -71 264 -122 378 -153 l81 -22 33 -87 c18 -47 51 -132 73 -189 l39 -102
311 2 311 3 72 184 71 184 144 47 c154 51 261 97 359 154 34 20 66 36 73 36 7
0 93 -36 192 -80 l180 -80 219 219 218 218 -83 187 -82 187 22 37 c71 121 147
298 191 447 l26 89 184 71 185 71 0 313 0 314 -185 71 -184 72 -28 94 c-31
104 -99 280 -109 280 -4 0 -123 -131 -265 -291 -255 -287 -259 -292 -257 -333
7 -152 5 -351 -5 -407 -94 -534 -506 -952 -1027 -1044 -118 -21 -334 -21 -445
0 -260 48 -476 162 -666 350 -245 243 -374 551 -374 894 0 260 71 493 217 714
64 97 239 271 338 336 148 97 314 164 485 196 111 21 327 21 445 0 181 -32
372 -113 521 -223 64 -46 78 -53 89 -41 8 8 162 181 344 384 l330 370 -52 53
-53 52 -179 -80 c-98 -44 -184 -80 -191 -80 -7 0 -44 18 -83 40 -122 69 -242
117 -470 188 -20 6 -35 36 -95 192 l-72 185 -311 3 -311 2 -49 -127z"/>
<path d="M4506 4756 c-460 -110 -463 -112 -368 -199 26 -24 68 -63 94 -88 l48
-44 -571 -640 c-313 -352 -576 -646 -584 -654 -11 -12 -41 7 -198 123 -102 75
-201 143 -220 151 -47 19 -138 19 -185 0 -25 -11 -161 -139 -416 -393 -407
-406 -426 -429 -426 -525 0 -132 106 -237 240 -237 99 1 120 17 435 329 l290
288 180 -134 c220 -164 241 -176 320 -177 114 0 91 -22 825 804 366 412 667
749 670 749 3 1 43 -33 90 -74 93 -81 132 -95 150 -52 7 16 90 781 90 829 0
15 -33 38 -53 37 -12 0 -197 -42 -411 -93z"/>
</g></g><text x="46" y="16" font-family="-apple-system, BlinkMacSystemFont, 'Segoe UI', Helvetica, Arial, sans-serif" font-size="24" font-weight="600" fill="#1f2328" dominant-baseline="central">What I optimize for</text></svg>
