<svg xmlns="http://www.w3.org/2000/svg" viewBox="0 0 732 28" width="732" height="28" role="img" aria-label="QA Control Panel: an agentic AI test automation platform"><g transform="translate(4 2) scale(0.046875)"><g transform="translate(0.000000,512.000000) scale(0.100000,-0.100000)"
fill="#e6edf3" stroke="none">
<path d="M2955 5066 c-37 -16 -70 -52 -84 -89 -7 -19 -11 -193 -11 -509 0
-471 0 -481 21 -518 12 -21 38 -47 59 -59 37 -21 46 -21 565 -21 519 0 528 0
565 21 21 12 47 38 59 59 21 37 21 47 21 527 l0 490 -23 34 c-12 18 -38 44
-56 56 l-34 23 -526 0 c-416 -1 -532 -4 -556 -14z"/>
<path d="M120 4608 c-48 -33 -72 -70 -77 -121 -6 -52 20 -108 65 -142 27 -20
45 -20 1230 -23 l1202 -2 0 155 0 155 -1194 0 -1193 0 -33 -22z"/>
<path d="M4470 4475 l0 -156 258 3 c288 3 288 3 331 79 41 73 18 155 -58 206
-33 22 -41 23 -282 23 l-249 0 0 -155z"/>
<path d="M1396 3160 c-41 -13 -94 -68 -106 -110 -13 -47 -13 -934 0 -979 13
-46 65 -99 110 -111 47 -13 1013 -13 1060 0 47 13 99 68 111 116 11 51 11 917
0 968 -12 48 -64 103 -111 116 -44 12 -1023 12 -1064 0z"/>
<path d="M130 2698 c-64 -33 -85 -67 -85 -138 0 -71 21 -105 85 -137 44 -23
49 -23 442 -23 l398 0 0 160 0 160 -398 0 c-393 0 -398 0 -442 -22z"/>
<path d="M2890 2560 l0 -160 1028 0 1028 0 44 23 c64 32 85 66 85 137 0 71
-21 105 -85 138 l-44 22 -1028 0 -1028 0 0 -160z"/>
<path d="M2620 1227 c-19 -12 -43 -38 -54 -57 -20 -34 -21 -49 -21 -525 0
-544 -2 -527 67 -577 l33 -23 545 0 545 0 33 23 c69 50 67 33 67 577 0 476 -1
491 -21 525 -11 19 -35 45 -54 57 l-33 23 -537 0 -537 0 -33 -23z"/>
<path d="M135 790 c-59 -24 -99 -94 -92 -158 5 -50 29 -87 77 -119 l33 -23
1038 0 1039 0 0 155 0 155 -1037 -1 c-571 0 -1047 -4 -1058 -9z"/>
<path d="M4150 645 l0 -155 409 0 c408 0 408 0 442 23 79 53 100 134 54 212
-44 76 -40 75 -499 75 l-406 0 0 -155z"/>
</g></g><text x="38" y="14" font-family="-apple-system, BlinkMacSystemFont, 'Segoe UI', Helvetica, Arial, sans-serif" font-size="20" font-weight="600" fill="#e6edf3" dominant-baseline="central">QA Control Panel: an agentic AI test automation platform</text></svg>
