<svg xmlns="http://www.w3.org/2000/svg" viewBox="0 0 200 32" width="200" height="32" role="img" aria-label="Let's talk"><g transform="translate(6 2) scale(0.0546875)"><g transform="translate(0.000000,512.000000) scale(0.100000,-0.100000)"
fill="#1f2328" stroke="none">
<path d="M740 4464 c-116 -31 -214 -115 -271 -229 l-34 -70 0 -1070 0 -1071
37 -75 c46 -93 112 -158 206 -202 l67 -32 268 -3 267 -3 0 -441 c0 -320 3
-452 12 -482 25 -81 118 -146 209 -146 81 1 104 20 639 555 l515 515 861 2
860 3 75 37 c93 46 158 112 202 206 l32 67 0 1070 0 1070 -34 69 c-37 77 -102
148 -171 189 -103 60 1 57 -1925 56 -1516 0 -1768 -2 -1815 -15z m998 -1083
c65 -33 118 -87 149 -149 38 -77 39 -190 4 -269 -58 -130 -211 -211 -348 -183
-282 57 -356 418 -119 578 66 44 97 52 191 48 59 -2 91 -8 123 -25z m960 0
c65 -33 118 -87 149 -149 38 -77 39 -190 4 -269 -58 -130 -211 -211 -348 -183
-282 57 -356 418 -119 578 66 44 97 52 191 48 59 -2 91 -8 123 -25z m960 0
c65 -33 118 -87 149 -149 38 -77 39 -190 4 -269 -58 -130 -211 -211 -348 -183
-282 57 -356 418 -119 578 66 44 97 52 191 48 59 -2 91 -8 123 -25z"/>
</g></g><text x="46" y="16" font-family="-apple-system, BlinkMacSystemFont, 'Segoe UI', Helvetica, Arial, sans-serif" font-size="24" font-weight="600" fill="#1f2328" dominant-baseline="central">Let's talk</text></svg>
