<svg xmlns="http://www.w3.org/2000/svg" viewBox="0 0 130 44" width="130" height="44"><path d="M 6 1 L 120 1 Q 129 1 129 10 L 129 34 Q 129 43 120 43 L 6 43 Q 3 43 3 40 L 3 32 L 15 22 L 3 12 L 3 4 Q 3 1 6 1 Z" fill="#f6f8fa" stroke="#d0d7de" stroke-width="1"/><path d="M 2.85 4 C 2.71 5.39 0.65 9.32 2.32 12.32 C 4 15.32 12.9 18.77 12.9 22 C 12.9 25.23 4 28.68 2.32 31.68 C 0.65 34.68 2.71 38.61 2.85 40 C 2.99 41.39 3.01 41.28 3.15 40 C 3.29 38.72 1.35 35.32 3.68 32.32 C 6 29.32 17.1 25.44 17.1 22 C 17.1 18.56 6 14.68 3.68 11.68 C 1.35 8.68 3.29 5.28 3.15 4 C 3.01 2.72 2.99 2.61 2.85 4 Z" fill="#9fb3cc"/><text x="24" y="22.5" text-anchor="start" dominant-baseline="middle" font-family='-apple-system, BlinkMacSystemFont, "Segoe UI", Helvetica, Arial, sans-serif' font-size="17" font-weight="600" fill="#1f2937">Tech Stack</text></svg>
