<svg xmlns="http://www.w3.org/2000/svg" viewBox="0 0 88 40" width="88" height="40"><path d="M 6 1 L 78 1 Q 87 1 87 10 L 87 30 Q 87 39 78 39 L 6 39 Q 3 39 3 36 L 3 29 L 15 20 L 3 11 L 3 4 Q 3 1 6 1 Z" fill="#f6f8fa" stroke="#d0d7de" stroke-width="1"/><path d="M 2.85 4 C 2.71 5.22 0.65 8.67 2.33 11.34 C 4 14 12.9 17.11 12.9 20 C 12.9 22.89 4 26 2.33 28.66 C 0.65 31.33 2.71 34.78 2.85 36 C 2.99 37.22 3.01 37.11 3.15 36 C 3.29 34.89 1.35 32 3.67 29.34 C 6 26.67 17.1 23.11 17.1 20 C 17.1 16.89 6 13.33 3.67 10.66 C 1.35 8 3.29 5.11 3.15 4 C 3.01 2.89 2.99 2.78 2.85 4 Z" fill="#9fb3cc"/><text x="24" y="20.5" text-anchor="start" dominant-baseline="middle" font-family='-apple-system, BlinkMacSystemFont, "Segoe UI", Helvetica, Arial, sans-serif' font-size="15" font-weight="600" fill="#1f2937">Impact</text></svg>
