<svg xmlns="http://www.w3.org/2000/svg" viewBox="0 0 600 20" width="600" height="20"><style>.shL{animation:swL 3.6s ease-in-out infinite}.shR{animation:swR 3.6s ease-in-out infinite}@keyframes swL{0%{transform:translateX(-170px);opacity:0}13%{opacity:1}42%{opacity:1}50%{transform:translateX(215px);opacity:0}100%{transform:translateX(215px);opacity:0}}@keyframes swR{0%{transform:translateX(600px);opacity:0}13%{opacity:1}42%{opacity:1}50%{transform:translateX(215px);opacity:0}100%{transform:translateX(215px);opacity:0}}@media(prefers-reduced-motion:reduce){.shL,.shR{display:none}}</style><defs><linearGradient id="fade" x1="0" y1="0" x2="1" y2="0"><stop offset="0" stop-color="#909dab" stop-opacity="0"/><stop offset="0.15" stop-color="#909dab" stop-opacity="0.34"/><stop offset="0.85" stop-color="#909dab" stop-opacity="0.34"/><stop offset="1" stop-color="#909dab" stop-opacity="0"/></linearGradient><linearGradient id="glint" x1="0" y1="0" x2="1" y2="0"><stop offset="0" stop-color="#ffffff" stop-opacity="0"/><stop offset="0.5" stop-color="#ffffff" stop-opacity="0.85"/><stop offset="1" stop-color="#ffffff" stop-opacity="0"/></linearGradient><clipPath id="clip"><path d="M 0 9.5 L 285 9.5 Q 289 9.5 292.47 11.49 L 296.96 14.06 Q 300 15.8 303.04 14.06 L 307.53 11.49 Q 311 9.5 315 9.5 L 600 9.5 L 600 10.5 L 315 10.5 Q 311 10.5 307.72 12.79 L 302.87 16.19 Q 300 18.2 297.13 16.19 L 292.28 12.79 Q 289 10.5 285 10.5 L 0 10.5 Z"/></clipPath></defs><path d="M 0 9.5 L 285 9.5 Q 289 9.5 292.47 11.49 L 296.96 14.06 Q 300 15.8 303.04 14.06 L 307.53 11.49 Q 311 9.5 315 9.5 L 600 9.5 L 600 10.5 L 315 10.5 Q 311 10.5 307.72 12.79 L 302.87 16.19 Q 300 18.2 297.13 16.19 L 292.28 12.79 Q 289 10.5 285 10.5 L 0 10.5 Z" fill="url(#fade)"/><g clip-path="url(#clip)"><rect class="shL" x="0" y="0" width="170" height="20" fill="url(#glint)"/><rect class="shR" x="0" y="0" width="170" height="20" fill="url(#glint)"/></g></svg>
