<svg version="1.0" xmlns="http://www.w3.org/2000/svg"
 width="24" height="24" viewBox="0 0 512.000000 512.000000"
 preserveAspectRatio="xMidYMid meet">
<metadata>
Created by potrace 1.16, written by Peter Selinger 2001-2019
</metadata>
<g transform="translate(0.000000,512.000000) scale(0.100000,-0.100000)"
fill="#e6edf3" stroke="none">
<path d="M735 4628 c-27 -5 -87 -27 -133 -48 -108 -51 -222 -161 -270 -260
-66 -136 -62 -25 -62 -1760 0 -1735 -4 -1624 62 -1760 48 -99 162 -209 269
-259 46 -22 111 -44 143 -50 42 -8 598 -11 1820 -11 1933 0 1828 -3 1962 61
94 45 218 168 262 259 66 136 62 26 62 1760 0 1734 4 1624 -62 1760 -43 90
-168 214 -260 258 -134 65 -27 62 -1973 61 -1073 -1 -1790 -5 -1820 -11z
m3617 -324 c63 -21 126 -78 154 -138 l24 -51 0 -1555 0 -1555 -24 -51 c-13
-27 -42 -66 -66 -87 -85 -72 60 -67 -1880 -67 -1940 0 -1795 -5 -1880 67 -24
21 -53 60 -66 87 l-24 51 0 1555 0 1555 24 51 c27 58 91 117 150 138 35 12
284 15 1792 15 1558 1 1755 -1 1796 -15z"/>
<path d="M1286 3510 c-83 -25 -128 -129 -95 -217 5 -15 168 -187 362 -380
l352 -353 -352 -352 c-194 -194 -357 -366 -362 -381 -14 -37 -14 -103 0 -130
35 -68 105 -104 177 -91 32 5 90 59 465 433 236 234 435 438 443 453 18 35 18
101 0 136 -8 15 -205 217 -438 449 -465 465 -459 460 -552 433z"/>
<path d="M2480 1898 c-50 -34 -72 -71 -77 -125 -5 -65 26 -120 87 -150 l44
-23 666 0 666 0 44 23 c61 30 92 85 87 150 -5 54 -27 91 -77 125 l-33 22 -687
0 -687 0 -33 -22z"/>
</g>
</svg>
