<svg version="1.0" xmlns="http://www.w3.org/2000/svg"
 width="24" height="24" viewBox="0 0 512.000000 576.000000"
 preserveAspectRatio="xMidYMid meet">
<metadata>
Created by potrace 1.16, written by Peter Selinger 2001-2019
</metadata>
<g transform="translate(0.000000,512.000000) scale(0.100000,-0.100000)"
fill="#e6edf3" stroke="none">
<path d="M528 4836 c-99 -35 -175 -102 -225 -198 l-28 -53 0 -740 0 -740 27
-57 c37 -79 98 -142 177 -181 l66 -32 735 0 735 0 66 32 c79 39 140 102 177
181 l27 57 0 735 0 735 -32 66 c-39 79 -102 140 -181 177 l-57 27 -725 2
c-578 2 -732 0 -762 -11z m1430 -318 c17 -17 17 -1339 0 -1356 -17 -17 -1339
-17 -1356 0 -17 17 -17 1339 0 1356 17 17 1339 17 1356 0z"/>
<path d="M3088 4836 c-99 -35 -175 -102 -225 -198 l-28 -53 0 -740 0 -740 27
-57 c37 -79 98 -142 177 -181 l66 -32 735 0 735 0 66 32 c79 39 140 102 177
181 l27 57 0 735 0 735 -32 66 c-39 79 -102 140 -181 177 l-57 27 -725 2
c-578 2 -732 0 -762 -11z m1430 -318 c17 -17 17 -1339 0 -1356 -17 -17 -1339
-17 -1356 0 -17 17 -17 1339 0 1356 17 17 1339 17 1356 0z"/>
<path d="M3740 2384 c-30 -8 -75 -28 -100 -44 -25 -16 -228 -213 -451 -437
-301 -303 -412 -420 -428 -455 -51 -107 -51 -223 0 -334 31 -69 840 -880 911
-913 107 -50 229 -50 336 0 71 33 880 844 911 913 35 76 47 155 34 224 -23
123 -28 129 -462 565 -223 224 -426 421 -451 437 -52 33 -145 60 -205 59 -22
0 -65 -7 -95 -15z m512 -692 c301 -301 388 -393 388 -412 0 -19 -87 -111 -388
-412 -301 -301 -393 -388 -412 -388 -36 0 -800 764 -800 800 0 36 764 800 800
800 19 0 111 -87 412 -388z"/>
<path d="M528 2276 c-99 -35 -175 -102 -225 -198 l-28 -53 0 -740 0 -740 27
-57 c37 -79 98 -142 177 -181 l66 -32 735 0 735 0 66 32 c79 39 140 102 177
181 l27 57 0 735 0 735 -32 66 c-39 79 -102 140 -181 177 l-57 27 -725 2
c-578 2 -732 0 -762 -11z m1430 -318 c17 -17 17 -1339 0 -1356 -17 -17 -1339
-17 -1356 0 -17 17 -17 1339 0 1356 17 17 1339 17 1356 0z"/>
</g>
</svg>
