<svg version="1.0" xmlns="http://www.w3.org/2000/svg"
 width="24" height="24" viewBox="0 0 512.000000 576.000000"
 preserveAspectRatio="xMidYMid meet">
<metadata>
Created by potrace 1.16, written by Peter Selinger 2001-2019
</metadata>
<g transform="translate(0.000000,512.000000) scale(0.100000,-0.100000)"
fill="#e6edf3" stroke="none">
<path d="M2172 4294 c-210 -449 -381 -818 -380 -819 2 -2 175 80 386 182 l383
186 382 -186 c210 -102 383 -184 385 -182 4 4 -762 1635 -768 1635 -3 0 -177
-367 -388 -816z"/>
<path d="M1970 4780 c-295 -78 -623 -243 -850 -430 -389 -319 -666 -750 -785
-1225 -32 -127 -65 -323 -65 -384 l0 -31 -135 0 -135 0 0 -150 0 -150 133 0
133 0 12 -112 c66 -590 370 -1142 842 -1528 166 -136 433 -288 645 -366 174
-64 496 -134 614 -134 l31 0 0 -135 0 -135 150 0 150 0 0 134 0 133 77 7 c425
39 883 226 1213 496 396 323 680 774 793 1255 27 115 57 301 57 354 l0 31 135
0 135 0 0 150 0 150 -135 0 -135 0 0 31 c0 61 -33 257 -65 384 -119 475 -396
908 -785 1225 -233 191 -549 350 -853 430 -89 24 -108 26 -103 14 3 -9 40 -89
82 -179 l77 -163 61 -22 c192 -69 447 -223 616 -372 259 -229 463 -535 571
-857 44 -132 82 -304 94 -418 l7 -73 -126 0 -126 0 0 -150 0 -150 125 0 c146
0 134 15 110 -144 -72 -477 -321 -924 -685 -1228 -289 -242 -631 -398 -996
-453 -159 -24 -144 -36 -144 110 l0 125 -150 0 -150 0 0 -125 c0 -147 18 -135
-165 -105 -401 66 -749 236 -1053 515 -329 303 -572 789 -617 1233 l-7 72 126
0 126 0 0 150 0 150 -126 0 -126 0 7 68 c49 480 295 953 665 1280 167 148 424
303 616 372 l61 22 82 175 c45 96 81 176 79 178 -2 1 -50 -10 -108 -25z"/>
<path d="M2740 2938 c-1 -255 -2 -281 -16 -263 -8 11 -85 136 -170 278 l-155
257 -160 0 -159 0 0 -585 0 -585 150 0 150 0 2 306 3 307 185 -307 185 -306
142 0 143 0 0 590 0 590 -150 0 -150 0 0 -282z"/>
</g>
</svg>
